<?xml version="1.0" encoding="UTF-8"?>
<!DOCTYPE svg PUBLIC "-//W3C//DTD SVG 1.1//EN" "http://www.w3.org/Graphics/SVG/1.1/DTD/svg11.dtd">
<svg xmlns="http://www.w3.org/2000/svg" version="1.1" width="51px" height="39px" style="shape-rendering:geometricPrecision; text-rendering:geometricPrecision; image-rendering:optimizeQuality; fill-rule:evenodd; clip-rule:evenodd" xmlns:xlink="http://www.w3.org/1999/xlink">
<g><path style="opacity:1" fill="#040202" d="M -0.5,-0.5 C 16.5,-0.5 33.5,-0.5 50.5,-0.5C 50.5,12.5 50.5,25.5 50.5,38.5C 33.5,38.5 16.5,38.5 -0.5,38.5C -0.5,25.5 -0.5,12.5 -0.5,-0.5 Z"/></g>
<g><path style="opacity:1" fill="#555d72" d="M 35.5,11.5 C 34.0762,13.5145 33.4095,15.8478 33.5,18.5C 32.596,19.209 32.2627,20.209 32.5,21.5C 30.8819,24.1709 30.2153,27.1709 30.5,30.5C 28.2776,30.4413 27.2776,29.2747 27.5,27C 29.0032,20.663 31.3365,14.663 34.5,9C 31.6353,8.8171 28.9686,8.3171 26.5,7.5C 32.3354,5.29701 38.3354,5.13034 44.5,7C 41.8987,7.92035 39.2321,8.58701 36.5,9C 35.7476,9.67076 35.4142,10.5041 35.5,11.5 Z"/></g>
<g><path style="opacity:1" fill="#352014" d="M 35.5,11.5 C 35.5905,14.1522 34.9238,16.4855 33.5,18.5C 33.4095,15.8478 34.0762,13.5145 35.5,11.5 Z"/></g>
<g><path style="opacity:1" fill="#525b70" d="M 26.5,7.5 C 25.1667,7.5 23.8333,7.5 22.5,7.5C 22.2139,14.4291 20.7139,21.0957 18,27.5C 15.8309,30.4175 13.3309,30.9175 10.5,29C 9.40857,26.9361 9.2419,24.7695 10,22.5C 10.8373,20.9926 12.0039,20.4926 13.5,21C 12.565,23.3806 12.2317,25.8806 12.5,28.5C 14.1238,28.6399 15.2904,27.9733 16,26.5C 18.3315,20.2161 19.4982,13.8827 19.5,7.5C 17.9017,8.48471 16.235,8.65138 14.5,8C 18.4854,4.95603 22.4854,4.78936 26.5,7.5 Z"/></g>
<g><path style="opacity:1" fill="#452913" d="M 32.5,21.5 C 32.3239,24.7273 31.6572,27.7273 30.5,30.5C 30.2153,27.1709 30.8819,24.1709 32.5,21.5 Z"/></g>
</svg>
